<svg width="14" height="15" fill="none" xmlns="http://www.w3.org/2000/svg"><g clip-path="url('#clip0_1_5041')"><path fill-rule="evenodd" clip-rule="evenodd" d="M7 14.5a7 7 0 1 0 0-14 7 7 0 0 0 0 14Zm-.204-9.165c.14.138.331.208.576.208.321 0 .597-.115.827-.343.238-.235.357-.516.357-.841a.727.727 0 0 0-.21-.54c-.14-.139-.332-.208-.576-.208-.321 0-.597.118-.828.353-.23.229-.345.506-.345.83 0 .222.066.402.199.54ZM5.78 11.243c.223.097.488.146.796.146.28 0 .558-.035.838-.104.286-.07.52-.166.702-.29l.073-.343a1.833 1.833 0 0 0-.22.052c-.09.02-.164.03-.22.03-.16 0-.241-.075-.241-.228 0-.062.004-.11.01-.145l.849-4.06h-.388l-2.42.716.011.415c.105-.02.171-.03.2-.03.195 0 .292.086.292.259l-.02.125-.577 2.824a.869.869 0 0 0-.02.145c0 .229.111.392.335.488Z" fill="#000"/></g><defs><clipPath id="clip0_1_5041"><path fill="#fff" d="M0 0h14v15H0z"/></clipPath></defs></svg>