<svg width="24" height="24" fill="none" xmlns="http://www.w3.org/2000/svg"><g clip-path="url('#clip0_1_5149')"><mask id="mask0_1_5149" style="mask-type:luminance" maskUnits="userSpaceOnUse" x="0" y="0" width="24" height="24"><path d="M24 0H0v24h24V0Z" fill="#fff"/></mask><g mask="url('#mask0_1_5149')"><path d="M16 3H8a5 5 0 0 0-5 5v8a5 5 0 0 0 5 5h8a5 5 0 0 0 5-5V8a5 5 0 0 0-5-5Zm3.25 13A3.26 3.26 0 0 1 16 19.25H8A3.26 3.26 0 0 1 4.75 16V8A3.26 3.26 0 0 1 8 4.75h8A3.26 3.26 0 0 1 19.25 8v8Zm-1.5-8.75a1 1 0 1 1-2 0 1 1 0 0 1 2 0ZM12 7.5a4.5 4.5 0 1 0 4.5 4.5A4.49 4.49 0 0 0 12 7.5Zm0 7.25a2.75 2.75 0 1 1 0-5.5 2.75 2.75 0 0 1 0 5.5Z" fill="#000"/></g></g><defs><clipPath id="clip0_1_5149"><path fill="#fff" d="M0 0h24v24H0z"/></clipPath></defs></svg>