<svg width="48" height="49" fill="none" xmlns="http://www.w3.org/2000/svg"><g clip-path="url('#clip0_1_5019')"><path d="M38 .5H10C4.477.5 0 4.977 0 10.5v28c0 5.523 4.477 10 10 10h28c5.523 0 10-4.477 10-10v-28c0-5.523-4.477-10-10-10Z" fill="#0E0F0F"/><path d="M27.78 20.913h12.217l-9.883 7.185-6.108 4.436-9.895 7.185 3.786-11.62-9.894-7.197 12.217.011 3.786-11.632 3.774 11.632ZM24.006 32.534l9.882 7.185-3.774-11.62.85 2.63-6.958 1.805Z" fill="#fff"/></g><defs><clipPath id="clip0_1_5019"><path fill="#fff" d="M0 0h48v49H0z"/></clipPath></defs></svg>