<svg width="24" height="24" fill="none" xmlns="http://www.w3.org/2000/svg"><path d="M18.73 6.08c-.14-.07-.28-.15-.41-.24-.38-.25-.73-.55-1.05-.89-.78-.89-1.07-1.8-1.18-2.43-.08-.52-.04-.86-.04-.86H12.5v13.73c0 .18 0 .37-.01.55v.11c-.08 1-.64 1.9-1.52 2.39-.45.25-.95.39-1.47.39a3.01 3.01 0 0 1 0-6.02c.31 0 .62.05.92.15V9.34c-1.83-.24-3.67.3-5.08 1.49-.61.53-1.13 1.17-1.52 1.87-.15.26-.72 1.3-.78 2.98-.04.95.25 1.94.39 2.35v.01c.09.24.42 1.06.96 1.76.44.56.96 1.05 1.54 1.45v-.01l.01.01c1.72 1.17 3.62 1.09 3.62 1.09.33-.01 1.44 0 2.69-.59 1.39-.66 2.18-1.64 2.18-1.64.51-.59.91-1.26 1.19-1.98.32-.84.43-1.86.43-2.26V8.58c.04.03.62.41.62.41s.83.53 2.12.87c.93.25 2.17.3 2.17.3V6.63c-.44.04-1.32-.09-2.23-.55Z" fill="#000"/></svg>