<svg width="24" height="24" fill="none" xmlns="http://www.w3.org/2000/svg"><path d="M21.97 6.464a7.991 7.991 0 0 1-1.846 1.778v.55a12.19 12.19 0 0 1-3.621 8.69A12.178 12.178 0 0 1 7.773 21 12.217 12.217 0 0 1 2.33 19.74a.25.25 0 0 1-.15-.23v-.11a.26.26 0 0 1 .26-.26 8.844 8.844 0 0 0 5.112-1.837 4.363 4.363 0 0 1-3.884-2.558.26.26 0 0 1 .26-.36c.51.052 1.025.004 1.518-.14A4.355 4.355 0 0 1 2 10.44a.26.26 0 0 1 .36-.26c.497.22 1.033.335 1.577.34A4.277 4.277 0 0 1 2.23 5.585a.54.54 0 0 1 .91-.18 12.339 12.339 0 0 0 8.396 3.876 4 4 0 0 1-.12-1 4.352 4.352 0 0 1 7.499-2.937 8.674 8.674 0 0 0 2.387-.828.17.17 0 0 1 .18 0 .17.17 0 0 1 0 .18 4.365 4.365 0 0 1-1.758 1.998 8.563 8.563 0 0 0 1.997-.48.16.16 0 0 1 .18 0 .17.17 0 0 1 .07.25Z" fill="#000"/></svg>