<svg width="24" height="24" viewBox="0 0 24 24" fill="none" xmlns="http://www.w3.org/2000/svg">
<path d="M17.0639 6.87891C14.7873 6.87891 13.769 8.12408 13.199 8.99607V7.18082H8.91211C8.96837 8.38474 8.91211 20.002 8.91211 20.002H13.199V12.8422C13.199 12.4597 13.2271 12.0771 13.3396 11.8033C13.649 11.0382 14.3541 10.245 15.5393 10.245C17.092 10.245 17.7127 11.4208 17.7127 13.1441V20.002H21.9995V12.651C21.9995 8.71103 19.8842 6.87891 17.0639 6.87891Z" fill="black"/>
<path d="M6.53977 7.18066H2.25293V20.0018H6.53977V7.18066Z" fill="black"/>
<path d="M4.42471 1C2.95826 1 2 1.95826 2 3.21468C2 4.44485 2.93013 5.43124 4.37033 5.43124H4.39846C5.89304 5.43124 6.82504 4.44672 6.82504 3.21468C6.79504 1.95638 5.89116 1 4.42471 1Z" fill="black"/>
</svg>
