<svg width="24" height="24" viewBox="0 0 24 24" fill="none" xmlns="http://www.w3.org/2000/svg">
<path d="M18.73 6.08016C18.59 6.01016 18.45 5.93016 18.32 5.84016C17.94 5.59016 17.59 5.29016 17.27 4.95016C16.49 4.06016 16.2 3.15016 16.09 2.52016C16.01 2.00016 16.05 1.66016 16.05 1.66016H12.5V15.3902C12.5 15.5702 12.5 15.7602 12.49 15.9402C12.49 15.9602 12.49 15.9802 12.49 16.0102C12.49 16.0202 12.49 16.0302 12.49 16.0402V16.0502C12.41 17.0502 11.85 17.9502 10.97 18.4402C10.52 18.6902 10.02 18.8302 9.50001 18.8302C7.85001 18.8302 6.50001 17.4802 6.50001 15.8202C6.50001 14.1602 7.84001 12.8102 9.50001 12.8102C9.81001 12.8102 10.12 12.8602 10.42 12.9602V9.34016C8.59001 9.10016 6.75001 9.64016 5.34001 10.8302C4.73001 11.3602 4.21001 12.0002 3.82001 12.7002C3.67001 12.9602 3.10001 14.0002 3.04001 15.6802C3.00001 16.6302 3.29001 17.6202 3.43001 18.0302V18.0402C3.52001 18.2802 3.85001 19.1002 4.39001 19.8002C4.83001 20.3602 5.35001 20.8502 5.93001 21.2502V21.2402L5.94001 21.2502C7.66001 22.4202 9.56001 22.3402 9.56001 22.3402C9.89001 22.3302 11 22.3402 12.25 21.7502C13.64 21.0902 14.43 20.1102 14.43 20.1102C14.94 19.5202 15.34 18.8502 15.62 18.1302C15.94 17.2902 16.05 16.2702 16.05 15.8702V8.58016C16.09 8.61016 16.67 8.99016 16.67 8.99016C16.67 8.99016 17.5 9.52016 18.79 9.86016C19.72 10.1102 20.96 10.1602 20.96 10.1602V6.63016C20.52 6.67016 19.64 6.54016 18.73 6.08016Z" fill="black"/>
</svg>
